<svg xmlns="http://www.w3.org/2000/svg" width="20px" height="20px" viewBox="0 0 16 16">
    <path fill="#FF9900" fill-rule="nonzero" d="M9.76 9.924c-.261 1.046-2.022.48-2.595.339l.463-1.856c.571.143 2.403.426 2.131 1.517m-1.5-4.048l-.42 1.684c.476.117 1.942.601 2.18-.351.248-.992-1.285-1.214-1.76-1.333m7.488 4.3A7.68 7.68 0 0 1 6.44 15.77a7.678 7.678 0 1 1 9.31-5.594m-5.754-4.89l.345-1.384-.842-.21-.336 1.347c-.222-.055-.45-.107-.675-.158l.34-1.357-.844-.21-.345 1.382a23.172 23.172 0 0 1-.538-.125v-.005l-1.16-.288-.225.9s.625.143.612.151c.342.086.403.311.393.49l-.394 1.577a.888.888 0 0 1 .088.029l-.09-.021-.55 2.209c-.042.102-.147.258-.386.198.008.013-.612-.152-.612-.152l-.42.965 1.096.273c.204.051.403.105.6.155l-.348 1.4.841.21.346-1.386c.23.063.453.12.672.175l-.344 1.378.842.21.349-1.397c1.437.272 2.518.162 2.972-1.137.367-1.046-.018-1.65-.774-2.044.55-.128.966-.49 1.076-1.237.154-1.022-.625-1.572-1.69-1.938"/>
</svg>
