<?xml version="1.0" standalone="no"?>
<!DOCTYPE svg PUBLIC "-//W3C//DTD SVG 20010904//EN"
 "http://www.w3.org/TR/2001/REC-SVG-20010904/DTD/svg10.dtd">
<svg version="1.0" xmlns="http://www.w3.org/2000/svg"
 width="705.000000pt" height="705.000000pt" viewBox="0 0 705.000000 705.000000"
 preserveAspectRatio="xMidYMid meet">
<metadata>
Created by potrace 1.11, written by Peter Selinger 2001-2013
</metadata>
<g transform="translate(0.000000,705.000000) scale(0.100000,-0.100000)"
fill="#000000" stroke="none">
<path d="M1027 6020 l-1025 -1025 0 -1445 c0 -1179 2 -1450 13 -1470 8 -15
474 -487 1038 -1051 l1024 -1024 1452 0 1451 0 1025 1025 1025 1025 0 47 c0
33 -4 47 -12 46 -8 -2 -12 7 -12 21 1 18 -158 -136 -640 -617 -352 -353 -644
-645 -649 -648 -4 -4 -21 5 -37 21 l-29 28 689 690 690 689 0 205 c0 168 -2
204 -13 200 -10 -4 -13 2 -9 21 5 25 4 26 -13 12 -10 -8 -87 -84 -171 -169
l-152 -153 -4 87 c-2 61 1 90 10 97 12 11 17 0 12 -32 -1 -8 75 61 169 155
l171 170 0 207 c0 172 -2 206 -14 202 -10 -4 -12 2 -9 23 4 23 -26 -3 -166
-142 -94 -93 -171 -165 -171 -160 -6 126 -4 164 11 173 13 9 15 6 11 -16 l-5
-27 23 20 c13 11 90 87 171 169 l149 149 0 204 c0 124 -4 202 -9 198 -5 -3
-11 7 -13 22 -3 25 -16 14 -170 -141 l-168 -168 0 90 c0 62 4 93 13 101 11 8
13 4 9 -22 -4 -29 11 -17 167 138 l171 170 0 208 c0 136 -3 206 -10 202 -5 -3
-10 3 -10 14 0 12 -3 21 -8 21 -4 0 -79 -72 -167 -161 l-160 -160 -3 82 c-3
89 7 137 17 84 6 -29 9 -26 174 139 l167 168 0 118 c0 132 -5 148 -68 209
l-41 40 -126 -126 c-69 -69 -125 -120 -125 -112 0 8 -9 21 -20 29 -11 8 -20
19 -20 25 0 5 50 60 111 121 131 132 133 109 -17 260 l-102 103 -117 -119
c-124 -126 -132 -130 -164 -78 -10 17 2 32 104 135 84 84 113 118 103 124 -7
5 -13 12 -13 17 0 5 -355 364 -789 798 l-789 789 -1452 0 -1452 1 -1026 -1026z"/>
</g>
</svg>
